<?xml version="1.0" encoding="utf-8"?>
<!-- Generator: Adobe Illustrator 19.2.1, SVG Export Plug-In . SVG Version: 6.00 Build 0)  -->
<svg version="1.1" id="layer" xmlns="http://www.w3.org/2000/svg" xmlns:xlink="http://www.w3.org/1999/xlink" x="0px" y="0px"
	 viewBox="0 0 652 652" style="enable-background:new 0 0 652 652;" xml:space="preserve">
<style type="text/css">
	.st0{fill:#F9C514;}
</style>
<path class="st0" d="M41.3,336.3c-12,0-21.3-9.3-21.3-21.6c0-12,8.7-21.9,21.6-21.9c7.8,0,12.3,2.7,16.2,6.6L53,305
	c-3.3-3.3-6.9-5.4-11.7-5.4c-8.1-0.3-13.8,6.6-13.8,14.7c0,8.1,6,14.7,13.8,14.7c5.4,0,8.1-2.1,12-5.7l4.8,4.8
	C53.9,333.3,49.1,336.3,41.3,336.3z M65.3,293.6v41.7h7.5v-41.7H65.3z M108.5,307.4c0,4.5-3.3,7.2-8.4,7.2H89.6v-14.4h10.5
	C105.5,300.3,108.5,302.9,108.5,307.4z M117.5,335.3l-11.1-15.6c6-1.8,9.9-6,9.9-12.6c0-8.1-6-13.2-15.6-13.2H82.1v41.7h7.5v-14.4h9
	l10.2,14.4L117.5,335.3C117.5,335.6,117.5,335.3,117.5,335.3z M208.4,293.6h-7.5v24.3c0,7.8-4.2,11.7-10.5,11.7
	c-6.6,0-10.5-4.2-10.5-11.7v-24h-7.5v24.3c0,12,6.9,18.3,17.7,18.3s18-6.6,18-18.6C208.4,317.3,208.4,293.6,208.4,293.6z M248,293.6
	h-30.9v41.7h31.2v-6.6h-24v-11.1h21V311h-21v-10.8H248L248,293.6L248,293.6z M305,314.6c0,8.4-5.7,14.1-14.4,14.1h-8.1v-28.2h8.1
	C299.3,300.3,305,306.5,305,314.6z M312.5,314.3c0-11.7-9-21-22.2-21h-15.6V335h15.6C303.8,335.3,312.5,326.6,312.5,314.3z
	 M356,293.6h-7.5v24.3c0,7.8-4.2,11.7-10.5,11.7c-6.6,0-10.5-4.2-10.5-11.7v-24H320v24.3c0,12,6.9,18.3,17.7,18.3s18-6.6,18-18.6
	v-24.3H356L356,293.6z M388.1,304.8c0-3,2.4-5.1,6.9-5.1c3.9,0,7.5,1.5,11.1,4.5l4.2-5.7c-4.2-3.3-9-5.4-15.3-5.4
	c-8.1,0-14.1,4.8-14.1,12c0,7.8,5.1,10.2,13.8,12.3c7.8,1.8,9.3,3.3,9.3,6.6c0,3.3-3,5.4-7.5,5.4c-5.4,0-9-2.1-13.2-5.7l-4.5,5.4
	c5.1,4.5,10.8,6.9,17.4,6.9c8.7,0,14.7-4.8,14.7-12.3c0-7.2-4.8-10.2-13.2-12.3C390.2,309.5,388.1,308,388.1,304.8z M453.2,314.6
	c0,8.4-6,14.7-14.1,14.7c-8.4,0-14.1-6.9-14.1-14.7c0-8.1,6-14.7,14.1-14.7C447.2,299.6,453.2,306.5,453.2,314.6z M460.7,314.3
	c0-11.7-9-21.6-21.9-21.6c-12.9,0-21.9,9.6-21.9,21.9c0,11.7,9,21.6,21.9,21.6C452,336.3,460.7,326.6,460.7,314.3z M468.8,335.3
	h29.1v-6.9H476v-35.1h-7.5v42H468.8L468.8,335.3z M535.7,293.6h-30.9v41.7H536v-6.6h-24v-11.1h21V311h-21v-10.8h23.7V293.6
	L535.7,293.6L535.7,293.6z M544.1,293.6v41.7h7.5v-41.7H544.1z M560.6,335.3h29.1v-6.9h-21.9v-35.1h-7.5v42H560.6L560.6,335.3z
	 M157.4,314.6c0-8.1-6-14.7-14.1-14.7c-8.1,0-14.1,6.9-14.1,14.7c0,8.4,6,14.7,14.1,14.7C151.7,329.3,157.4,323,157.4,314.6z
	 M136.1,335c-8.7-3-14.4-10.8-14.4-20.4c0-11.7,9-21.9,21.9-21.9s21.9,9.6,21.9,21.6c0,9-5.4,16.8-13.2,20.1c3.3,1.5,5.1,3,9.6,5.4
	c7.8,3.6,14.7,7.2,25.8,7.2c8.4,0,17.4-3.3,21.6-6.9l1.5,2.1c-5.4,5.4-17.1,9-27.6,9c-5.7,0-13.5-0.9-20.7-4.2
	c-4.8-2.1-10.8-5.7-15.3-7.5C143.9,338.3,138.5,335.9,136.1,335z M609.5,314.3c5.7,0,10.5,4.5,10.5,10.5s-4.8,10.5-10.5,10.5
	s-10.5-4.5-10.5-10.5S603.8,314.3,609.5,314.3z M609.5,333.5c4.8,0,8.4-3.9,8.4-9s-3.6-8.7-8.4-8.7s-8.7,3.9-8.7,8.7
	C601.1,329.6,604.7,333.5,609.5,333.5z M605.6,318.5h4.8c3,0,4.2,1.2,4.2,3.6c0,2.1-1.5,3-3.3,3.3l3.6,5.4h-2.1l-3.3-5.1h-2.1v5.1
	h-1.8V318.5L605.6,318.5z M607.4,323.9h2.1c1.8,0,3.3,0,3.3-2.1c0-1.5-1.5-1.8-2.7-1.8h-2.4L607.4,323.9L607.4,323.9L607.4,323.9z"
	/>
</svg>
